<?xml version="1.0" encoding="UTF-8"?>
<svg id="Layer_1" xmlns="http://www.w3.org/2000/svg" version="1.1" viewBox="0 0 595.28 841.89">
  <!-- Generator: Adobe Illustrator 29.4.0, SVG Export Plug-In . SVG Version: 2.1.0 Build 152)  -->
  <defs>
    <style>
      .st0 {
        fill: #010101;
      }

      .st1 {
        fill: #376ba0;
      }

      .st2 {
        fill: #fff;
      }

      .st3 {
        fill: #b12b2c;
      }
    </style>
  </defs>
  <g id="Vgv0pL.tif">
    <g>
      <path class="st0" d="M432,308c.09-4.98-.07-10.02,0-15h31v15h15v45h-15v45h-15v15h-15v75h-15v30h-15v15h-15v15h-30v15h-45v15h-46v-15c14.98.04,30.02-.03,45,0v-15h15c-.13-19.98.17-40.02,0-60h15c-.17,19.98.13,40.02,0,60h15v-15h30v-15h15v-30h15v-75h15v-15h15v-45h15v-45c-9.98-.02-20.02.03-30,0Z"/>
      <path class="st0" d="M387,383v15c4.99.05,10.01-.03,15,0v15h-15c-.75,0,0-13.42,0-15-4.98-.05-10.02-.04-15,0s-10.02-.03-15.01,0c-.06,4.99.1,10.02,0,15.01-4.99.04-10.01-.05-15,0-.04-9.98.08-20.02,0-30,14.98.04,30.02.13,45,0Z"/>
      <path class="st0" d="M342.02,323v15s-.02,0-.02,0h-30s-.02,0-.02,0v-15c10-.02,20.03.02,30.03,0Z"/>
      <path class="st0" d="M358,263v30h30v15c14.65.03,29.35-.04,44,0-.09,4.99.06,10.02,0,15.01-14.99.02-30.02-.05-45.01,0-.01-4.99,0-10.02,0-15.01-14.99,0-30.02,0-44.99,0v-30.02h-15.02c-.01,5.01,0,10.03,0,15.02-4.99.06-10.02-.1-15.02,0v15s0,15,0,15c-4.97.01-10-.04-14.98,0-.04,4.99.03,10.02,0,15.01-4.99.06-10.02-.1-15.01,0,0,4.99,0,10.01,0,15h30c.07,4.98-.09,10.02,0,15-19.98-.05-40.02-.17-59.98,0v-15.02h-30.02c-.09,5,.06,10.04,0,15.02-4.99.06-10.02-.1-15.02,0v15.02h30.02c-.09,4.97.06,10,0,14.99-14.98.08-30.02-.13-45.01,0-.04,4.99.03,10.02,0,15.01-4.99.06-10.02-.1-15.01,0-.08,9.98-.03,20.02,0,30-4.99,0-10.01,0-15,0v15c0,.75-13.42,0-15,0-.09-4.99.06-10.02,0-15.01-4.99,0-10.02,0-15.01,0-.05,4.99.01,10.01,0,15-.04,14.98-.13,30.02,0,45,4.99,0,10.01.05,15,0,0,4.99-.01,10.01,0,15,14.98.13,30.02-.04,45,0,9.99.02,20.02-.01,30.01,0,.06,4.99-.1,10.02,0,15.01,4.99-.04,10.02.03,15.01,0v-45.01c4.98.01,10.01.04,14.99,0-.17,19.98.13,40.02,0,60.01,4.99.02,10.02-.05,15.01,0,0,4.99,0,10.01,0,15-9.98-.03-20.02.02-30,0v-15h-15c-.07-4.98.09-10.02,0-15-24.98.21-50.02-.16-75.01,0,0-4.99.02-10.02,0-15.01-4.99-.04-10.02.03-15.01,0-.02-4.99.05-10.02,0-15.01h-15v-60h15c.05-4.99-.03-10.01,0-15h30v-15c4.98-.07,10.02.09,15,0,.04-4.99-.03-10.02,0-15.01,4.99-.02,10.02.05,15.01,0,.08-9.98-.06-20.02,0-30.01,4.99-.06,10.02.1,14.99,0v-15.02s15.02,0,15.02,0c.09-4.97-.07-10,0-14.98h31v15h14v-15c4.98-.07,10.02.09,15,0v-15.01c4.98-.03,10.01.05,15,0,.08-9.98-.06-20.02,0-30.01,4.99-.06,10.02.1,14.99,0v-15.02s15.02,0,15.02,0c.01-4.97,0-9.99,0-14.98h31Z"/>
      <path class="st0" d="M312,488c-.04,4.99.03,10.02,0,15.01-4.99.02-10.02-.05-15.01,0,.01-4.99-.04-10.01,0-15,4.99.05,10.01,0,15,0Z"/>
      <path class="st0" d="M312,473c4.99,0,10.02,0,15.01,0,.02,4.99-.05,10.02,0,15.01h-15c.04-4.98.05-10.02,0-15Z"/>
      <path class="st0" d="M252.02,368v15.02s-15.02,0-15.02,0c.09-5-.06-10.04,0-15.02,4.99-.02,10.02.05,15.02,0Z"/>
      <path class="st0" d="M267,473c-.09,4.99.06,10.02,0,15.01-4.99.03-10.02-.05-15.01,0,.04-4.99-.03-10.02,0-15.01h15.01Z"/>
      <path class="st0" d="M312,368c9.99.02,20.02-.01,30.01,0,.02,4.99-.05,10.02,0,15.01-9.99-.02-20.02.01-30.01,0-.06-4.99.1-10.02,0-15.01Z"/>
      <path class="st0" d="M267,473c.09-4.98-.07-10.02,0-15h45c.03,4.99-.05,10.01,0,15-4.99,0-10.02,0-15.01,0-.03,4.99.05,10.02,0,15.01-4.99-.05-10.01.03-15,0v-15c-4.99,0-10.01,0-15,0Z"/>
      <path class="st0" d="M177,443h15.01c0,9.98-.03,20.01,0,30-4.99-.09-10.02.06-15.01,0,0-9.99.03-20.02,0-30.01Z"/>
      <path class="st0" d="M342,413c.02,4.99-.01,10.01,0,15s-.04,10.01,0,15c4.99.09,10.02-.06,15.01,0,0,4.99-.02,10.02,0,15.01,4.98.09,10.02-.07,15,0v15c-4.98.07-10.02-.09-15,0,0-4.99.01-10.01,0-15-4.99-.09-10.02.06-15.01,0-.03-4.99.05-10.02,0-15.01-4.98-.09-10.02.07-15,0v-30c4.99-.03,10.01.05,15,0Z"/>
      <path class="st2" d="M372,398v15.01c-4.98.03-10.01-.05-15,0-.09,4.99.06,10.02,0,15.01h-15.01c-.01-4.99.02-10.02,0-15.01,4.99-.05,10.01.04,15,0,.09-4.99-.06-10.02,0-15.01,4.99-.03,10.02.05,15.01,0Z"/>
      <path class="st2" d="M222,352.98h30.02s0,15.02,0,15.02c-5.01.04-10.04-.03-15.02,0-.06,4.99.1,10.02,0,15.02h-30.02s0-15.02,0-15.02c5-.09,10.04.06,15.02,0,.06-4.99-.1-10.02,0-15.02Z"/>
      <path class="st2" d="M342.02,308v15c14.97-.02,30,.04,44.98,0,.01,4.99,0,10.01,0,15-4.99.05-10.01-.03-15,0v15h30v-15c4.99.05,10.01-.03,15,0v30h-15v15c-4.99.03-10.01-.04-15,0-14.98.13-30.02.04-45,0-.04-4.99.03-10.02,0-15.01-9.99,0-20.02.03-30.01,0-.09-4.98.07-10.02,0-15h-30c0-4.99,0-10.01,0-15,4.99-.09,10.02.06,15.01,0,.02-4.99-.05-10.02,0-15.01,4.99-.04,10.01.01,14.98,0v15h.02s30,0,30,0h.02v-15c-10,.02-20.03-.02-30.03,0v-15s30.03,0,30.03,0Z"/>
      <path class="st2" d="M312,473c.05,4.98.04,10.02,0,15-4.99,0-10.01.05-15,0,.04-4.99-.03-10.02,0-15.01,4.99,0,10.02,0,15.01,0Z"/>
      <path class="st2" d="M312,368c.09,4.99-.06,10.02,0,15.01,9.99,0,20.02-.03,30.01,0,.08,9.98-.04,20.02,0,30-4.99.05-10.01-.03-15,0v30c4.98.07,10.02-.09,15,0,.04,4.99-.03,10.02,0,15.01,4.99.06,10.02-.1,15.01,0,.01,4.99,0,10.01,0,15-4.99.09-10.02-.06-15.01,0-.02,4.99.05,10.02,0,15.01h-15c.17,19.98-.13,40.02,0,60h-15v15c-14.98-.03-30.02.04-45,0,0-4.99,0-10.01,0-15,9.98.08,20.02-.07,30.01,0,.02-14.99-.04-30.02,0-45.01-9.98.08-20.02-.06-30.01,0v45.01c-4.98-.04-10.01.03-15,0,.14-19.98-.16-40.02,0-60.01,4.99-.04,10.02.03,15.01,0,.06-4.99-.1-10.02,0-15.01,4.99,0,10.01,0,15,0v15c4.99.03,10.01-.05,15,0-.04,4.99.01,10.01,0,15,4.99-.04,10.02.03,15.01,0,.03-4.99-.05-10.02,0-15.01h15c-.04-4.99.03-10.02,0-15.01-4.99,0-10.02,0-15.01,0-.05-4.99.03-10.01,0-15h-45c-.07,4.98.09,10.02,0,15h-15.01c-.02,4.98.05,10.01,0,15-4.99.04-10.01.01-15,0-9.98-.02-20.02.02-30,0v-15c-4.98-.07-10.02.09-15,0,.04,14.98-.03,30.02,0,45-14.98-.04-30.02.13-45,0-.01-4.99,0-10.01,0-15,4.99-.05,10.01.03,15,0v-30h-15c-.07-4.98.09-10.02,0-15h-15c.01-4.99-.05-10.01,0-15,4.99,0,10.02,0,15.01,0,.06,4.99-.1,10.02,0,15.01,1.58,0,15,.75,15,0v-15c4.99,0,10.01,0,15,0,.03,9.99-.02,20.02,0,30.01,4.99.06,10.02-.1,15.01,0-.02-9.99.01-20.02,0-30.01h-15.01c-.03-9.98-.08-20.01,0-29.99,4.99-.09,10.02.06,15.01,0,.02-4.99-.05-10.02,0-15.01,14.98-.13,30.02.09,45.01,0,.06-4.99-.1-10.02,0-14.99h15.02v-15.02c19.96-.17,40.01-.05,59.98,0Z"/>
      <path class="st1" d="M327,277.98h15.02s0,30.02,0,30.02c14.97,0,30,0,44.99,0,0,4.99-.02,10.02,0,15.01,14.99-.04,30.02.03,45.01,0,.06-4.99-.1-10.02,0-15.01,9.98.03,20.02-.02,30,0v45h-15v45h-15v15h-15v75h-15v30h-15v15h-30v15h-15c.13-19.98-.17-40.02,0-60,.04-4.99-.03-10.02,0-15.01,4.99-.06,10.02.1,15.01,0s10.02.07,15,0v-15c-4.98-.07-10.02.09-15,0-.01-4.99,0-10.02,0-15.01-4.99-.06-10.02.1-15.01,0-.04-4.99.01-10.01,0-15h15.01c.06-4.98-.1-10.01,0-15,4.99-.04,10.02.03,15.01,0v-15.01c4.98-.04,10.01-.05,14.99,0,0,1.58-.75,15,0,15h15v-15c-4.99-.03-10.01.05-15,0v-15c4.99-.04,10.01.03,15,0v-15h15v-30c-4.99-.03-10.01.05-15,0s-10.02-.05-15,0c0-4.99.01-10.01,0-15-14.98.04-30.02-.02-44.98,0v-15h-30.03s0-15,0-15c5-.09,10.04.06,15.02,0,0-4.99-.02-10.02,0-15.02Z"/>
      <path class="st3" d="M147,458c.09,4.98-.07,10.02,0,15h15v30c-4.99.03-10.01-.05-15,0s-10.01,0-15,0c-.13-14.98-.04-30.02,0-45h15Z"/>
      <path class="st1" d="M192,473c4.98.09,10.02-.07,15,0v15c9.98.02,20.02-.02,30,0v45.01c-4.98.02-10.01-.05-15,0-.09-4.99.06-10.02,0-15.01-9.99,0-20.02.03-30.01,0-.03-14.98.04-30.02,0-45Z"/>
      <path class="st0" d="M387,338c4.98-.05,10.02-.05,15,0v15h-30v-15c4.99-.03,10.01.05,15,0Z"/>
      <path class="st3" d="M297,503c-.04,14.99.02,30.02,0,45.01-9.99-.07-20.02.08-30.01,0v-45.01c9.98-.05,20.02.09,30,0Z"/>
    </g>
  </g>
</svg>